<svg width="219" height="51" viewBox="0 0 219 51" fill="none" xmlns="http://www.w3.org/2000/svg">
<path d="M73.7154 38.95C71.6154 38.95 69.7404 38.7083 68.0904 38.225C66.4404 37.7417 65.0738 37.2 63.9904 36.6C62.9071 35.9833 62.1654 35.4667 61.7654 35.05C61.8654 34.7167 62.0738 34.2083 62.3904 33.525C62.7071 32.8417 63.0821 32.1 63.5154 31.3C63.9488 30.4833 64.3821 29.725 64.8154 29.025C65.2654 28.325 65.6571 27.8083 65.9904 27.475C66.8238 28.1417 67.6988 28.7917 68.6154 29.425C69.5321 30.0417 70.4488 30.55 71.3654 30.95C72.2821 31.35 73.1238 31.55 73.8904 31.55C74.4238 31.55 74.8904 31.4917 75.2904 31.375C75.7071 31.2583 76.0321 31.075 76.2654 30.825C76.4988 30.5583 76.6154 30.2167 76.6154 29.8C76.6154 29.3333 76.3321 28.85 75.7654 28.35C75.2154 27.8333 74.5154 27.3417 73.6654 26.875C72.8321 26.3917 71.9821 25.9667 71.1154 25.6C69.8321 25.0333 68.6238 24.375 67.4904 23.625C66.3571 22.875 65.4404 21.9417 64.7404 20.825C64.0404 19.6917 63.6904 18.3 63.6904 16.65C63.6904 14.9667 64.1904 13.55 65.1904 12.4C66.2071 11.2333 67.5238 10.3583 69.1404 9.775C70.7738 9.175 72.4988 8.875 74.3154 8.875C75.9654 8.875 77.6988 9.10833 79.5154 9.575C81.3321 10.0417 82.8404 10.75 84.0404 11.7C83.9404 12.0333 83.7071 12.5583 83.3404 13.275C82.9904 13.9917 82.5488 14.7667 82.0154 15.6C81.4988 16.4167 80.9404 17.1833 80.3404 17.9C79.7071 17.2833 78.8904 16.7 77.8904 16.15C76.8904 15.6 75.8654 15.325 74.8154 15.325C74.3488 15.325 73.8821 15.375 73.4154 15.475C72.9654 15.5583 72.5821 15.725 72.2654 15.975C71.9654 16.2083 71.8154 16.5333 71.8154 16.95C71.8154 17.35 71.9904 17.725 72.3404 18.075C72.6904 18.4083 73.1988 18.7417 73.8654 19.075C74.5488 19.4083 75.3821 19.7833 76.3654 20.2C77.2321 20.5667 78.1571 21.0167 79.1404 21.55C80.1404 22.0833 81.0738 22.7333 81.9404 23.5C82.8238 24.25 83.5404 25.125 84.0904 26.125C84.6571 27.125 84.9404 28.275 84.9404 29.575C84.9404 31.6917 84.4154 33.45 83.3654 34.85C82.3321 36.2333 80.9654 37.2583 79.2654 37.925C77.5821 38.6083 75.7321 38.95 73.7154 38.95ZM94.4225 50.15C91.8225 50.15 89.4725 49.7583 87.3725 48.975C85.2891 48.2083 83.5475 47.3667 82.1475 46.45C82.3808 45.8333 82.7308 45.0417 83.1975 44.075C83.6641 43.125 84.1475 42.1917 84.6475 41.275C85.1641 40.375 85.5725 39.7083 85.8725 39.275C86.5058 39.675 87.2975 40.1083 88.2475 40.575C89.1975 41.0583 90.2308 41.4667 91.3475 41.8C92.4808 42.15 93.6058 42.325 94.7225 42.325C95.8225 42.325 96.7475 42.0333 97.4975 41.45C98.2641 40.8667 98.8808 40.0917 99.3475 39.125C99.8308 38.175 100.181 37.1333 100.397 36C100.631 34.85 100.764 33.725 100.797 32.625C100.397 33.2417 99.8641 33.8167 99.1975 34.35C98.5475 34.8667 97.8141 35.2833 96.9975 35.6C96.1808 35.9167 95.3225 36.075 94.4225 36.075C91.7891 36.075 89.7391 35.375 88.2725 33.975C86.8225 32.575 85.8058 30.6917 85.2225 28.325C84.6391 25.9583 84.3475 23.3083 84.3475 20.375C84.3475 19.2417 84.3725 18.05 84.4225 16.8C84.4725 15.55 84.5308 14.2417 84.5975 12.875C84.9141 12.8083 85.3808 12.7583 85.9975 12.725C86.6308 12.6917 87.3141 12.675 88.0475 12.675C89.0808 12.675 90.0975 12.7083 91.0975 12.775C92.0975 12.825 92.7808 12.8917 93.1475 12.975C93.0808 13.2583 92.9975 13.7833 92.8975 14.55C92.7975 15.3 92.7058 16.1917 92.6225 17.225C92.5558 18.2417 92.5225 19.2833 92.5225 20.35C92.5225 21.3 92.5641 22.2333 92.6475 23.15C92.7308 24.0667 92.8891 24.8917 93.1225 25.625C93.3558 26.3583 93.6808 26.95 94.0975 27.4C94.5141 27.8333 95.0475 28.05 95.6975 28.05C96.8141 28.05 97.6975 27.6167 98.3475 26.75C99.0141 25.8833 99.4891 24.6833 99.7725 23.15C100.072 21.6167 100.239 19.8583 100.272 17.875C100.289 17.3083 100.297 16.7667 100.297 16.25C100.297 15.7333 100.289 15.2667 100.272 14.85C100.272 14.4167 100.264 14.05 100.247 13.75C100.231 13.45 100.214 13.225 100.197 13.075C100.631 13.0417 101.056 13.0167 101.472 13C101.906 12.9667 102.331 12.95 102.747 12.95C104.464 12.95 106.172 13.1417 107.872 13.525C107.972 15.5583 108.022 17.8667 108.022 20.45C108.022 21.95 108.006 23.5417 107.972 25.225C107.939 26.8917 107.889 28.6 107.822 30.35C107.772 32.1 107.697 33.85 107.597 35.6C107.447 38.4667 106.872 40.9917 105.872 43.175C104.872 45.3583 103.422 47.0667 101.522 48.3C99.6391 49.5333 97.2725 50.15 94.4225 50.15ZM117.926 37.35C117.359 37.35 116.659 37.3417 115.826 37.325C114.992 37.325 114.142 37.3167 113.276 37.3C112.609 37.2667 111.826 37.2333 110.926 37.2C110.026 37.1667 109.409 37.1333 109.076 37.1C109.242 35.7167 109.367 34.125 109.451 32.325C109.551 30.5083 109.626 28.5083 109.676 26.325C109.742 24.1417 109.792 21.7833 109.826 19.25C109.859 16.7167 109.876 14.0333 109.876 11.2C110.576 11.1 111.417 11.025 112.401 10.975C113.384 10.925 114.359 10.9 115.326 10.9C116.026 10.9 116.701 10.9167 117.351 10.95C118.001 10.9833 118.567 11.0417 119.051 11.125C119.067 11.2583 119.076 11.55 119.076 12C119.076 12.45 119.067 12.95 119.051 13.5C119.051 14.0333 119.042 14.5083 119.026 14.925C119.392 14.3083 120.042 13.6583 120.976 12.975C121.909 12.275 123.009 11.6917 124.276 11.225C125.559 10.7417 126.876 10.5 128.226 10.5C130.776 10.5 132.734 11.0167 134.101 12.05C135.467 13.0667 136.409 14.6083 136.926 16.675C137.442 18.7417 137.701 21.3417 137.701 24.475C137.701 25.5083 137.667 26.7417 137.601 28.175C137.551 29.5917 137.467 31.075 137.351 32.625C137.234 34.175 137.084 35.6583 136.901 37.075C136.517 37.1083 135.926 37.1333 135.126 37.15C134.326 37.1833 133.476 37.2 132.576 37.2C131.626 37.2 130.717 37.1833 129.851 37.15C129.001 37.1333 128.384 37.1083 128.001 37.075C128.151 36.3083 128.334 35.25 128.551 33.9C128.784 32.55 128.984 31.0667 129.151 29.45C129.317 27.8333 129.401 26.275 129.401 24.775C129.401 23.5083 129.292 22.4 129.076 21.45C128.876 20.5 128.484 19.7667 127.901 19.25C127.317 18.7167 126.459 18.45 125.326 18.45C124.509 18.45 123.701 18.6 122.901 18.9C122.101 19.1833 121.351 19.55 120.651 20C119.967 20.45 119.367 20.9083 118.851 21.375C118.834 23.9583 118.776 26.275 118.676 28.325C118.576 30.375 118.459 32.1583 118.326 33.675C118.192 35.175 118.059 36.4 117.926 37.35ZM162.612 31.65C162.079 32.55 161.287 33.4333 160.237 34.3C159.187 35.15 157.896 35.8583 156.362 36.425C154.846 36.9917 153.096 37.275 151.112 37.275C148.546 37.275 146.321 36.65 144.437 35.4C142.571 34.1333 141.121 32.45 140.087 30.35C139.054 28.25 138.537 25.95 138.537 23.45C138.537 20.8333 139.071 18.4833 140.137 16.4C141.221 14.3167 142.729 12.6667 144.662 11.45C146.596 10.2167 148.862 9.6 151.462 9.6C153.029 9.6 154.462 9.83333 155.762 10.3C157.079 10.7667 158.246 11.45 159.262 12.35C160.279 13.2333 161.137 14.3 161.837 15.55L155.762 18.875C155.696 18.7583 155.587 18.5833 155.437 18.35C155.287 18.1 155.062 17.8417 154.762 17.575C154.462 17.2917 154.079 17.0583 153.612 16.875C153.146 16.6917 152.571 16.6 151.887 16.6C150.787 16.6 149.862 16.825 149.112 17.275C148.379 17.7083 147.821 18.3417 147.437 19.175C147.054 19.9917 146.862 20.975 146.862 22.125C146.862 22.9917 146.987 23.8917 147.237 24.825C147.504 25.7583 147.962 26.55 148.612 27.2C149.262 27.85 150.171 28.175 151.337 28.175C152.054 28.175 152.721 28.05 153.337 27.8C153.954 27.55 154.496 27.2583 154.962 26.925C155.429 26.575 155.804 26.25 156.087 25.95C156.387 25.6333 156.579 25.4083 156.662 25.275L162.612 31.65Z" fill="black"/>
<path d="M175.447 37.725C172.447 37.725 170.089 37.0917 168.372 35.825C166.672 34.5417 165.397 32.7 164.547 30.3C163.714 27.9667 163.197 25.1083 162.997 21.725C162.797 18.3417 162.697 14.4917 162.697 10.175C162.697 9.64167 162.705 9.1 162.722 8.55C162.739 8 162.747 7.44167 162.747 6.875C162.764 6.30833 162.78 5.74167 162.797 5.175C162.83 4.60833 162.855 4.05833 162.872 3.525C163.655 3.45833 164.439 3.4 165.222 3.35C166.005 3.28333 166.755 3.25 167.472 3.25C168.389 3.25 169.314 3.28333 170.247 3.35C171.18 3.4 172.022 3.46667 172.772 3.55C172.655 4.76666 172.555 6.08333 172.472 7.5C172.405 8.9 172.355 10.3417 172.322 11.825C172.289 13.2917 172.272 14.7417 172.272 16.175C172.272 17.7917 172.314 19.2167 172.397 20.45C172.48 21.6833 172.622 22.725 172.822 23.575C173.089 24.7083 173.472 25.5417 173.972 26.075C174.489 26.6083 175.155 26.875 175.972 26.875C176.972 26.875 177.73 26.55 178.247 25.9C178.78 25.2333 179.139 24.325 179.322 23.175C179.522 22.0083 179.622 20.6833 179.622 19.2C179.622 18.55 179.614 17.6917 179.597 16.625C179.58 15.5417 179.555 14.3667 179.522 13.1C179.489 11.8167 179.447 10.5583 179.397 9.325C179.347 8.075 179.289 6.96667 179.222 6C179.172 5.01667 179.114 4.28333 179.047 3.8C179.797 3.8 180.664 3.83333 181.647 3.9C182.63 3.95 183.605 4.01666 184.572 4.1C185.539 4.16667 186.38 4.24167 187.097 4.325C187.814 4.40833 188.264 4.475 188.447 4.525C188.58 5.39166 188.689 6.31666 188.772 7.3C188.855 8.28333 188.922 9.3 188.972 10.35C189.022 11.3833 189.047 12.4333 189.047 13.5C189.047 16.85 188.864 19.9917 188.497 22.925C188.147 25.8417 187.489 28.4167 186.522 30.65C185.572 32.8667 184.197 34.6 182.397 35.85C180.614 37.1 178.297 37.725 175.447 37.725ZM189.094 48.3C189.278 45.5 189.436 42.5667 189.569 39.5C189.703 36.45 189.811 33.4333 189.894 30.45C189.994 27.4667 190.069 24.6833 190.119 22.1C190.186 19.5167 190.228 17.2833 190.244 15.4C190.278 13.5 190.294 12.125 190.294 11.275C191.461 10.8917 192.794 10.625 194.294 10.475C195.794 10.3083 197.244 10.225 198.644 10.225C198.711 10.8083 198.761 11.4583 198.794 12.175C198.844 12.875 198.869 13.525 198.869 14.125C199.169 13.7083 199.694 13.2 200.444 12.6C201.194 11.9833 202.161 11.4417 203.344 10.975C204.528 10.4917 205.886 10.25 207.419 10.25C210.836 10.25 213.336 11.3333 214.919 13.5C216.519 15.65 217.319 18.65 217.319 22.5C217.319 25.2 216.794 27.525 215.744 29.475C214.694 31.425 213.269 32.925 211.469 33.975C209.686 35.0083 207.686 35.525 205.469 35.525C204.503 35.525 203.519 35.4 202.519 35.15C201.536 34.9 200.661 34.5917 199.894 34.225C199.128 33.8583 198.603 33.4917 198.319 33.125C198.319 33.5417 198.303 34.2167 198.269 35.15C198.236 36.0667 198.194 37.1083 198.144 38.275C198.111 39.4417 198.061 40.6167 197.994 41.8C197.944 43 197.886 44.1083 197.819 45.125C197.769 46.1417 197.711 46.95 197.644 47.55C196.644 47.7333 195.594 47.875 194.494 47.975C193.411 48.0917 192.386 48.175 191.419 48.225C190.453 48.275 189.678 48.3 189.094 48.3ZM204.094 26.8C205.094 26.8 205.944 26.6083 206.644 26.225C207.361 25.8417 207.911 25.2833 208.294 24.55C208.678 23.8 208.869 22.9083 208.869 21.875C208.869 20.4583 208.536 19.3667 207.869 18.6C207.219 17.8333 206.128 17.45 204.594 17.45C203.644 17.45 202.794 17.5917 202.044 17.875C201.294 18.1417 200.661 18.4667 200.144 18.85C199.644 19.2333 199.244 19.6167 198.944 20C198.944 20.2333 198.936 20.5583 198.919 20.975C198.903 21.3917 198.886 21.8417 198.869 22.325C198.869 22.7917 198.861 23.2417 198.844 23.675C198.828 24.0917 198.811 24.4083 198.794 24.625C199.078 24.925 199.436 25.2417 199.869 25.575C200.319 25.9083 200.886 26.2 201.569 26.45C202.253 26.6833 203.094 26.8 204.094 26.8Z" fill="#29E2A2"/>
<path d="M6.25 4.16699L6.25 16.667H18.75" stroke="black" stroke-width="6" stroke-linecap="round" stroke-linejoin="round"/>
<path d="M43.75 24.9995C43.7467 21.3814 42.6967 17.8416 40.7266 14.8069C38.7564 11.7722 35.9504 9.37237 32.6469 7.89679C29.3433 6.42122 25.6834 5.93295 22.1086 6.49089C18.5338 7.04883 15.1968 8.62913 12.5 11.0412L6.25 16.6662" stroke="black" stroke-width="6" stroke-linecap="round" stroke-linejoin="round"/>
<path d="M6.25 25C6.2533 28.6181 7.30333 32.158 9.27345 35.1926C11.2436 38.2273 14.0496 40.6272 17.3531 42.1027C20.6567 43.5783 24.3166 44.0666 27.8914 43.5086C31.4662 42.9507 34.8032 41.3704 37.5 38.9583L43.75 33.3333" stroke="url(#paint0_linear_49_23)" stroke-width="6" stroke-linecap="round" stroke-linejoin="round"/>
<path d="M20.5561 23.7647L18.4085 25.8717C17.6064 26.6586 17.1452 27.7294 17.1536 28.8547C17.1621 29.98 17.6132 31.0572 18.4533 31.856C19.2674 32.6803 20.3656 33.1229 21.5124 33.1312C22.6853 33.1396 23.7508 32.7126 24.5529 31.9257L26.7004 29.8186M29.4435 27.1788L31.5911 25.0717C32.3931 24.2848 32.8544 23.2141 32.8459 22.0888C32.8375 20.9635 32.3864 19.8862 31.5463 19.0874C30.7323 18.2889 29.6343 17.8462 28.4874 17.838C27.3404 17.8297 26.249 18.2565 25.4469 19.0435L23.2993 21.1505M21.7432 28.6106L28.1858 22.2895" stroke="url(#paint1_linear_49_23)" stroke-width="2" stroke-linecap="round" stroke-linejoin="round"/>
<path d="M43.75 45.833V33.333H31.25" stroke="url(#paint2_linear_49_23)" stroke-width="6" stroke-linecap="round" stroke-linejoin="round"/>
<defs>
<linearGradient id="paint0_linear_49_23" x1="25" y1="25" x2="25" y2="43.7329" gradientUnits="userSpaceOnUse">
<stop/>
<stop offset="1" stop-color="#29E2A2"/>
</linearGradient>
<linearGradient id="paint1_linear_49_23" x1="21.908" y1="22.4383" x2="27.9738" y2="28.6207" gradientUnits="userSpaceOnUse">
<stop/>
<stop offset="1" stop-color="#29E2A2"/>
</linearGradient>
<linearGradient id="paint2_linear_49_23" x1="37.5" y1="33.333" x2="37.5" y2="45.833" gradientUnits="userSpaceOnUse">
<stop stop-color="#29E2A2"/>
<stop offset="1"/>
</linearGradient>
</defs>
</svg>
