<svg width="157" height="48" viewBox="0 0 157 48" fill="none" xmlns="http://www.w3.org/2000/svg">
<path d="M12.7154 35.95C10.6154 35.95 8.74043 35.7083 7.09043 35.225C5.44043 34.7417 4.07376 34.2 2.99043 33.6C1.9071 32.9833 1.16543 32.4667 0.76543 32.05C0.86543 31.7167 1.07376 31.2083 1.39043 30.525C1.7071 29.8417 2.0821 29.1 2.51543 28.3C2.94876 27.4833 3.3821 26.725 3.81543 26.025C4.26543 25.325 4.6571 24.8083 4.99043 24.475C5.82376 25.1417 6.69876 25.7917 7.61543 26.425C8.5321 27.0417 9.44876 27.55 10.3654 27.95C11.2821 28.35 12.1238 28.55 12.8904 28.55C13.4238 28.55 13.8904 28.4917 14.2904 28.375C14.7071 28.2583 15.0321 28.075 15.2654 27.825C15.4988 27.5583 15.6154 27.2167 15.6154 26.8C15.6154 26.3333 15.3321 25.85 14.7654 25.35C14.2154 24.8333 13.5154 24.3417 12.6654 23.875C11.8321 23.3917 10.9821 22.9667 10.1154 22.6C8.8321 22.0333 7.62376 21.375 6.49043 20.625C5.3571 19.875 4.44043 18.9417 3.74043 17.825C3.04043 16.6917 2.69043 15.3 2.69043 13.65C2.69043 11.9667 3.19043 10.55 4.19043 9.4C5.2071 8.23333 6.52376 7.35833 8.14043 6.775C9.77376 6.175 11.4988 5.875 13.3154 5.875C14.9654 5.875 16.6988 6.10833 18.5154 6.575C20.3321 7.04167 21.8404 7.75 23.0404 8.7C22.9404 9.03333 22.7071 9.55833 22.3404 10.275C21.9904 10.9917 21.5488 11.7667 21.0154 12.6C20.4988 13.4167 19.9404 14.1833 19.3404 14.9C18.7071 14.2833 17.8904 13.7 16.8904 13.15C15.8904 12.6 14.8654 12.325 13.8154 12.325C13.3488 12.325 12.8821 12.375 12.4154 12.475C11.9654 12.5583 11.5821 12.725 11.2654 12.975C10.9654 13.2083 10.8154 13.5333 10.8154 13.95C10.8154 14.35 10.9904 14.725 11.3404 15.075C11.6904 15.4083 12.1988 15.7417 12.8654 16.075C13.5488 16.4083 14.3821 16.7833 15.3654 17.2C16.2321 17.5667 17.1571 18.0167 18.1404 18.55C19.1404 19.0833 20.0738 19.7333 20.9404 20.5C21.8238 21.25 22.5404 22.125 23.0904 23.125C23.6571 24.125 23.9404 25.275 23.9404 26.575C23.9404 28.6917 23.4154 30.45 22.3654 31.85C21.3321 33.2333 19.9654 34.2583 18.2654 34.925C16.5821 35.6083 14.7321 35.95 12.7154 35.95ZM33.4225 47.15C30.8225 47.15 28.4725 46.7583 26.3725 45.975C24.2891 45.2083 22.5475 44.3667 21.1475 43.45C21.3808 42.8333 21.7308 42.0417 22.1975 41.075C22.6641 40.125 23.1475 39.1917 23.6475 38.275C24.1641 37.375 24.5725 36.7083 24.8725 36.275C25.5058 36.675 26.2975 37.1083 27.2475 37.575C28.1975 38.0583 29.2308 38.4667 30.3475 38.8C31.4808 39.15 32.6058 39.325 33.7225 39.325C34.8225 39.325 35.7475 39.0333 36.4975 38.45C37.2641 37.8667 37.8808 37.0917 38.3475 36.125C38.8308 35.175 39.1808 34.1333 39.3975 33C39.6308 31.85 39.7641 30.725 39.7975 29.625C39.3975 30.2417 38.8641 30.8167 38.1975 31.35C37.5475 31.8667 36.8141 32.2833 35.9975 32.6C35.1808 32.9167 34.3225 33.075 33.4225 33.075C30.7891 33.075 28.7391 32.375 27.2725 30.975C25.8225 29.575 24.8058 27.6917 24.2225 25.325C23.6391 22.9583 23.3475 20.3083 23.3475 17.375C23.3475 16.2417 23.3725 15.05 23.4225 13.8C23.4725 12.55 23.5308 11.2417 23.5975 9.875C23.9141 9.80833 24.3808 9.75833 24.9975 9.725C25.6308 9.69167 26.3141 9.675 27.0475 9.675C28.0808 9.675 29.0975 9.70833 30.0975 9.775C31.0975 9.825 31.7808 9.89167 32.1475 9.975C32.0808 10.2583 31.9975 10.7833 31.8975 11.55C31.7975 12.3 31.7058 13.1917 31.6225 14.225C31.5558 15.2417 31.5225 16.2833 31.5225 17.35C31.5225 18.3 31.5641 19.2333 31.6475 20.15C31.7308 21.0667 31.8891 21.8917 32.1225 22.625C32.3558 23.3583 32.6808 23.95 33.0975 24.4C33.5141 24.8333 34.0475 25.05 34.6975 25.05C35.8141 25.05 36.6975 24.6167 37.3475 23.75C38.0141 22.8833 38.4891 21.6833 38.7725 20.15C39.0725 18.6167 39.2391 16.8583 39.2725 14.875C39.2891 14.3083 39.2975 13.7667 39.2975 13.25C39.2975 12.7333 39.2891 12.2667 39.2725 11.85C39.2725 11.4167 39.2641 11.05 39.2475 10.75C39.2308 10.45 39.2141 10.225 39.1975 10.075C39.6308 10.0417 40.0558 10.0167 40.4725 10C40.9058 9.96667 41.3308 9.95 41.7475 9.95C43.4641 9.95 45.1725 10.1417 46.8725 10.525C46.9725 12.5583 47.0225 14.8667 47.0225 17.45C47.0225 18.95 47.0058 20.5417 46.9725 22.225C46.9391 23.8917 46.8891 25.6 46.8225 27.35C46.7725 29.1 46.6975 30.85 46.5975 32.6C46.4475 35.4667 45.8725 37.9917 44.8725 40.175C43.8725 42.3583 42.4225 44.0667 40.5225 45.3C38.6391 46.5333 36.2725 47.15 33.4225 47.15ZM56.9256 34.35C56.3589 34.35 55.6589 34.3417 54.8256 34.325C53.9923 34.325 53.1423 34.3167 52.2756 34.3C51.6089 34.2667 50.8256 34.2333 49.9256 34.2C49.0256 34.1667 48.4089 34.1333 48.0756 34.1C48.2423 32.7167 48.3673 31.125 48.4506 29.325C48.5506 27.5083 48.6256 25.5083 48.6756 23.325C48.7423 21.1417 48.7923 18.7833 48.8256 16.25C48.8589 13.7167 48.8756 11.0333 48.8756 8.2C49.5756 8.1 50.4173 8.025 51.4006 7.975C52.3839 7.925 53.3589 7.9 54.3256 7.9C55.0256 7.9 55.7006 7.91667 56.3506 7.95C57.0006 7.98333 57.5673 8.04166 58.0506 8.125C58.0673 8.25833 58.0756 8.55 58.0756 9C58.0756 9.45 58.0673 9.95 58.0506 10.5C58.0506 11.0333 58.0423 11.5083 58.0256 11.925C58.3923 11.3083 59.0423 10.6583 59.9756 9.975C60.9089 9.275 62.0089 8.69167 63.2756 8.225C64.5589 7.74167 65.8756 7.5 67.2256 7.5C69.7756 7.5 71.7339 8.01667 73.1006 9.05C74.4673 10.0667 75.4089 11.6083 75.9256 13.675C76.4423 15.7417 76.7006 18.3417 76.7006 21.475C76.7006 22.5083 76.6673 23.7417 76.6006 25.175C76.5506 26.5917 76.4673 28.075 76.3506 29.625C76.2339 31.175 76.0839 32.6583 75.9006 34.075C75.5173 34.1083 74.9256 34.1333 74.1256 34.15C73.3256 34.1833 72.4756 34.2 71.5756 34.2C70.6256 34.2 69.7173 34.1833 68.8506 34.15C68.0006 34.1333 67.3839 34.1083 67.0006 34.075C67.1506 33.3083 67.3339 32.25 67.5506 30.9C67.7839 29.55 67.9839 28.0667 68.1506 26.45C68.3173 24.8333 68.4006 23.275 68.4006 21.775C68.4006 20.5083 68.2923 19.4 68.0756 18.45C67.8756 17.5 67.4839 16.7667 66.9006 16.25C66.3173 15.7167 65.4589 15.45 64.3256 15.45C63.5089 15.45 62.7006 15.6 61.9006 15.9C61.1006 16.1833 60.3506 16.55 59.6506 17C58.9673 17.45 58.3673 17.9083 57.8506 18.375C57.8339 20.9583 57.7756 23.275 57.6756 25.325C57.5756 27.375 57.4589 29.1583 57.3256 30.675C57.1923 32.175 57.0589 33.4 56.9256 34.35ZM101.612 28.65C101.079 29.55 100.287 30.4333 99.2373 31.3C98.1873 32.15 96.8956 32.8583 95.3623 33.425C93.8456 33.9917 92.0956 34.275 90.1123 34.275C87.5456 34.275 85.3206 33.65 83.4373 32.4C81.5706 31.1333 80.1206 29.45 79.0873 27.35C78.054 25.25 77.5373 22.95 77.5373 20.45C77.5373 17.8333 78.0706 15.4833 79.1373 13.4C80.2206 11.3167 81.729 9.66667 83.6623 8.45C85.5956 7.21666 87.8623 6.6 90.4623 6.6C92.029 6.6 93.4623 6.83333 94.7623 7.3C96.079 7.76666 97.2456 8.45 98.2623 9.35C99.279 10.2333 100.137 11.3 100.837 12.55L94.7623 15.875C94.6956 15.7583 94.5873 15.5833 94.4373 15.35C94.2873 15.1 94.0623 14.8417 93.7623 14.575C93.4623 14.2917 93.079 14.0583 92.6123 13.875C92.1456 13.6917 91.5706 13.6 90.8873 13.6C89.7873 13.6 88.8623 13.825 88.1123 14.275C87.379 14.7083 86.8206 15.3417 86.4373 16.175C86.054 16.9917 85.8623 17.975 85.8623 19.125C85.8623 19.9917 85.9873 20.8917 86.2373 21.825C86.504 22.7583 86.9623 23.55 87.6123 24.2C88.2623 24.85 89.1706 25.175 90.3373 25.175C91.054 25.175 91.7206 25.05 92.3373 24.8C92.954 24.55 93.4956 24.2583 93.9623 23.925C94.429 23.575 94.804 23.25 95.0873 22.95C95.3873 22.6333 95.579 22.4083 95.6623 22.275L101.612 28.65Z" fill="black"/>
<path d="M114.447 34.725C111.447 34.725 109.089 34.0917 107.372 32.825C105.672 31.5417 104.397 29.7 103.547 27.3C102.714 24.9667 102.197 22.1083 101.997 18.725C101.797 15.3417 101.697 11.4917 101.697 7.175C101.697 6.64167 101.705 6.1 101.722 5.55C101.739 5 101.747 4.44167 101.747 3.875C101.764 3.30833 101.78 2.74167 101.797 2.175C101.83 1.60833 101.855 1.05833 101.872 0.524997C102.655 0.458332 103.439 0.399998 104.222 0.349998C105.005 0.283332 105.755 0.249999 106.472 0.249999C107.389 0.249999 108.314 0.283332 109.247 0.349998C110.18 0.399998 111.022 0.466665 111.772 0.549999C111.655 1.76666 111.555 3.08333 111.472 4.5C111.405 5.9 111.355 7.34166 111.322 8.825C111.289 10.2917 111.272 11.7417 111.272 13.175C111.272 14.7917 111.314 16.2167 111.397 17.45C111.48 18.6833 111.622 19.725 111.822 20.575C112.089 21.7083 112.472 22.5417 112.972 23.075C113.489 23.6083 114.155 23.875 114.972 23.875C115.972 23.875 116.73 23.55 117.247 22.9C117.78 22.2333 118.139 21.325 118.322 20.175C118.522 19.0083 118.622 17.6833 118.622 16.2C118.622 15.55 118.614 14.6917 118.597 13.625C118.58 12.5417 118.555 11.3667 118.522 10.1C118.489 8.81667 118.447 7.55833 118.397 6.325C118.347 5.075 118.289 3.96667 118.222 3C118.172 2.01667 118.114 1.28333 118.047 0.799998C118.797 0.799998 119.664 0.833331 120.647 0.899997C121.63 0.949997 122.605 1.01666 123.572 1.1C124.539 1.16667 125.38 1.24167 126.097 1.325C126.814 1.40833 127.264 1.475 127.447 1.525C127.58 2.39166 127.689 3.31666 127.772 4.3C127.855 5.28333 127.922 6.3 127.972 7.35C128.022 8.38333 128.047 9.43333 128.047 10.5C128.047 13.85 127.864 16.9917 127.497 19.925C127.147 22.8417 126.489 25.4167 125.522 27.65C124.572 29.8667 123.197 31.6 121.397 32.85C119.614 34.1 117.297 34.725 114.447 34.725ZM128.094 45.3C128.278 42.5 128.436 39.5667 128.569 36.5C128.703 33.45 128.811 30.4333 128.894 27.45C128.994 24.4667 129.069 21.6833 129.119 19.1C129.186 16.5167 129.228 14.2833 129.244 12.4C129.278 10.5 129.294 9.125 129.294 8.275C130.461 7.89167 131.794 7.625 133.294 7.475C134.794 7.30833 136.244 7.225 137.644 7.225C137.711 7.80833 137.761 8.45833 137.794 9.175C137.844 9.875 137.869 10.525 137.869 11.125C138.169 10.7083 138.694 10.2 139.444 9.6C140.194 8.98333 141.161 8.44167 142.344 7.975C143.528 7.49167 144.886 7.25 146.419 7.25C149.836 7.25 152.336 8.33333 153.919 10.5C155.519 12.65 156.319 15.65 156.319 19.5C156.319 22.2 155.794 24.525 154.744 26.475C153.694 28.425 152.269 29.925 150.469 30.975C148.686 32.0083 146.686 32.525 144.469 32.525C143.503 32.525 142.519 32.4 141.519 32.15C140.536 31.9 139.661 31.5917 138.894 31.225C138.128 30.8583 137.603 30.4917 137.319 30.125C137.319 30.5417 137.303 31.2167 137.269 32.15C137.236 33.0667 137.194 34.1083 137.144 35.275C137.111 36.4417 137.061 37.6167 136.994 38.8C136.944 40 136.886 41.1083 136.819 42.125C136.769 43.1417 136.711 43.95 136.644 44.55C135.644 44.7333 134.594 44.875 133.494 44.975C132.411 45.0917 131.386 45.175 130.419 45.225C129.453 45.275 128.678 45.3 128.094 45.3ZM143.094 23.8C144.094 23.8 144.944 23.6083 145.644 23.225C146.361 22.8417 146.911 22.2833 147.294 21.55C147.678 20.8 147.869 19.9083 147.869 18.875C147.869 17.4583 147.536 16.3667 146.869 15.6C146.219 14.8333 145.128 14.45 143.594 14.45C142.644 14.45 141.794 14.5917 141.044 14.875C140.294 15.1417 139.661 15.4667 139.144 15.85C138.644 16.2333 138.244 16.6167 137.944 17C137.944 17.2333 137.936 17.5583 137.919 17.975C137.903 18.3917 137.886 18.8417 137.869 19.325C137.869 19.7917 137.861 20.2417 137.844 20.675C137.828 21.0917 137.811 21.4083 137.794 21.625C138.078 21.925 138.436 22.2417 138.869 22.575C139.319 22.9083 139.886 23.2 140.569 23.45C141.253 23.6833 142.094 23.8 143.094 23.8Z" fill="#29E2A2"/>
</svg>
